<?xml version="1.0" encoding="UTF-8"?>
<svg viewBox="0 0 414 74" version="1.1" xmlns="http://www.w3.org/2000/svg" xmlns:xlink="http://www.w3.org/1999/xlink">
    <!-- Generator: Sketch 46 (44423) - http://www.bohemiancoding.com/sketch -->
    <title>Slice 1</title>
    <desc>Created with Sketch.</desc>
    <defs></defs>
    <g id="Page-1" stroke="none" stroke-width="1" fill="none" fill-rule="evenodd">
        <g id="Bloomfield_logo-horizontal-cmyk">
            <path d="M102.942,37.959 C106.913,37.959 109.057,36.211 109.057,32.241 C109.057,26.167 104.293,26.167 101.037,26.167 L98.377,26.167 L98.377,35.576 C98.377,37.72 98.734,37.959 100.561,37.959 L102.942,37.959 Z M100.243,12.905 C98.417,12.905 98.377,13.66 98.377,15.128 L98.377,24.022 L101.235,24.022 C103.776,24.022 107.826,24.022 107.826,18.106 C107.826,13.024 103.736,12.905 101.195,12.905 L100.243,12.905 Z M87.657,40.102 L87.657,37.959 L89.524,37.959 C91.588,37.959 91.786,37.799 91.786,35.06 L91.786,15.803 C91.786,13.064 91.588,12.905 89.524,12.905 L87.657,12.905 L87.657,10.761 L102.903,10.761 C106.238,10.761 108.303,10.88 110.646,11.834 C112.749,12.707 114.655,14.692 114.655,17.709 C114.655,23.665 107.866,24.697 106.277,24.896 L106.277,24.975 C108.978,25.134 116.243,25.65 116.243,32.281 C116.243,35.417 114.496,37.799 112.074,38.832 C109.097,40.102 107.469,40.102 103.736,40.102 L87.657,40.102 L87.657,40.102 Z" id="Fill-1" fill="#001325"></path>
            <path d="M137.796,37.959 C140.933,37.959 144.427,37.959 146.213,28.946 L148.278,28.946 L147.564,40.102 L122.073,40.102 L122.073,37.959 L124.099,37.959 C126.163,37.959 126.361,37.799 126.361,35.06 L126.361,15.803 C126.361,13.064 126.163,12.905 124.099,12.905 L122.073,12.905 L122.073,10.761 L138.511,10.761 L138.511,12.905 L135.176,12.905 C133.071,12.905 132.952,13.064 132.952,15.803 L132.952,35.695 C132.952,37.204 133.071,37.959 134.659,37.959 L137.796,37.959" id="Fill-2" fill="#001325"></path>
            <path d="M166.388,38.672 C171.271,38.672 173.296,34.584 173.296,24.816 C173.296,15.843 171.033,12.191 166.308,12.191 C160.908,12.191 159.519,17.709 159.519,25.373 C159.519,32.876 160.631,38.672 166.388,38.672 Z M166.427,10.046 C179.212,10.046 180.84,21.68 180.84,25.531 C180.84,31.129 177.861,40.816 166.229,40.816 C155.469,40.816 151.975,32.201 151.975,25.253 C151.975,20.37 154.516,10.046 166.427,10.046 L166.427,10.046 Z" id="Fill-3" fill="#001325"></path>
            <path d="M201.095,38.672 C205.978,38.672 208.003,34.584 208.003,24.816 C208.003,15.843 205.74,12.191 201.015,12.191 C195.615,12.191 194.226,17.709 194.226,25.373 C194.226,32.876 195.338,38.672 201.095,38.672 Z M201.134,10.046 C213.919,10.046 215.547,21.68 215.547,25.531 C215.547,31.129 212.568,40.816 200.936,40.816 C190.176,40.816 186.682,32.201 186.682,25.253 C186.682,20.37 189.223,10.046 201.134,10.046 L201.134,10.046 Z" id="Fill-4" fill="#001325"></path>
            <path d="M237.07,40.102 L226.589,12.27 L226.51,12.27 L226.51,32.042 C226.51,34.703 226.51,35.933 227.423,36.926 C228.098,37.68 229.487,37.959 230.242,37.959 L230.877,37.959 L230.877,40.102 L219.879,40.102 L219.879,37.959 C223.969,37.959 224.009,35.139 224.009,32.042 L224.009,15.803 C224.009,13.064 223.85,12.905 221.745,12.905 L219.879,12.905 L219.879,10.761 L232.703,10.761 L239.89,29.978 L246.759,10.761 L259.226,10.761 L259.226,12.905 L257.399,12.905 C255.334,12.905 255.176,13.064 255.176,15.803 L255.176,35.06 C255.176,37.64 255.176,37.959 257.399,37.959 L259.226,37.959 L259.226,40.102 L244.654,40.102 L244.654,37.959 L246.481,37.959 C248.704,37.959 248.704,37.64 248.704,35.06 L248.704,12.27 L248.624,12.27 L238.698,40.102 L237.07,40.102" id="Fill-5" fill="#001325"></path>
            <path d="M276.571,26.086 L276.571,35.06 C276.571,37.799 276.731,37.959 278.795,37.959 L282.011,37.959 L282.011,40.102 L265.892,40.102 L265.892,37.959 L267.718,37.959 C269.822,37.959 269.981,37.799 269.981,35.06 L269.981,15.803 C269.981,13.064 269.822,12.905 267.718,12.905 L265.892,12.905 L265.892,10.761 L290.666,10.761 L291.302,20.766 L289.157,20.766 C287.967,13.581 285.267,12.905 280.383,12.905 L278.755,12.905 C277.207,12.905 276.571,13.064 276.571,14.97 L276.571,23.943 L277.604,23.943 C280.979,23.943 282.527,22.315 282.527,18.543 L284.671,18.543 L284.671,31.923 L282.527,31.923 C282.527,27.119 280.82,26.086 277.525,26.086 L276.571,26.086" id="Fill-6" fill="#001325"></path>
            <path d="M313.208,37.959 L313.208,40.102 L297.882,40.102 L297.882,37.959 L299.986,37.959 C302.091,37.959 302.25,37.799 302.25,35.06 L302.25,15.803 C302.25,13.064 302.091,12.905 299.986,12.905 L297.882,12.905 L297.882,10.761 L313.208,10.761 L313.208,12.905 L311.064,12.905 C308.999,12.905 308.84,13.064 308.84,15.803 L308.84,35.06 C308.84,37.799 308.999,37.959 311.064,37.959 L313.208,37.959" id="Fill-7" fill="#001325"></path>
            <path d="M330.541,26.086 L330.541,35.377 C330.541,37.521 330.819,37.959 332.328,37.959 L334.869,37.959 C337.37,37.959 340.428,37.959 342.412,34.464 C342.969,33.471 343.723,31.804 343.921,29.263 L346.106,29.263 L345.589,40.102 L319.821,40.102 L319.821,37.959 L321.648,37.959 C323.752,37.959 323.871,37.799 323.871,35.06 L323.871,15.803 C323.871,13.064 323.752,12.905 321.648,12.905 L319.821,12.905 L319.821,10.761 L344.597,10.761 L345.232,20.766 L343.048,20.766 C341.897,13.581 339.157,12.905 334.314,12.905 L332.686,12.905 C331.137,12.905 330.541,13.064 330.541,14.97 L330.541,23.943 L331.534,23.943 C334.908,23.943 336.417,22.315 336.417,18.543 L338.601,18.543 L338.601,31.883 L336.417,31.883 C336.417,27.119 334.75,26.086 331.454,26.086 L330.541,26.086" id="Fill-8" fill="#001325"></path>
            <path d="M368.81,37.959 C371.946,37.959 375.441,37.959 377.227,28.946 L379.292,28.946 L378.577,40.102 L353.087,40.102 L353.087,37.959 L355.112,37.959 C357.177,37.959 357.375,37.799 357.375,35.06 L357.375,15.803 C357.375,13.064 357.177,12.905 355.112,12.905 L353.087,12.905 L353.087,10.761 L369.525,10.761 L369.525,12.905 L366.19,12.905 C364.085,12.905 363.966,13.064 363.966,15.803 L363.966,35.695 C363.966,37.204 364.085,37.959 365.673,37.959 L368.81,37.959" id="Fill-9" fill="#001325"></path>
            <path d="M396.727,12.905 C395.337,12.905 394.662,12.985 394.662,15.367 L394.662,35.695 C394.662,36.767 394.662,37.959 396.171,37.959 L397.044,37.959 C401.928,37.959 406.216,37.005 406.216,25.333 C406.216,16.201 403.635,12.905 398.036,12.905 L396.727,12.905 Z M383.982,10.761 L397.044,10.761 C401.371,10.761 405.263,10.761 408.836,13.66 C412.648,16.756 413.759,21.283 413.759,25.491 C413.759,31.129 411.535,36.25 406.216,38.752 C403.833,39.904 401.054,40.102 395.814,40.102 L383.982,40.102 L383.982,37.959 L385.808,37.959 C387.912,37.959 388.071,37.799 388.071,35.06 L388.071,15.803 C388.071,13.064 387.912,12.905 385.808,12.905 L383.982,12.905 L383.982,10.761 L383.982,10.761 Z" id="Fill-10" fill="#001325"></path>
            <polyline id="Fill-11" fill="#DA672A" points="25.692 0.139 7.34 25.83 0 25.83 18.351 0.139 25.692 0.139"></polyline>
            <polyline id="Fill-12" fill="#DA672A" points="38.962 0.139 20.611 25.83 13.271 25.83 31.622 0.139 38.962 0.139"></polyline>
            <polyline id="Fill-13" fill="#DA672A" points="52.233 0.139 33.882 25.83 26.541 25.83 44.892 0.139 52.233 0.139"></polyline>
            <polyline id="Fill-14" fill="#001325" points="44.892 0.139 63.243 25.83 70.584 25.83 52.233 0.139 44.892 0.139"></polyline>
            <polyline id="Fill-15" fill="#001325" points="31.622 0.139 49.973 25.83 57.313 25.83 38.962 0.139 31.622 0.139"></polyline>
            <polyline id="Fill-16" fill="#001325" points="18.351 0.139 36.702 25.83 44.043 25.83 25.692 0.139 18.351 0.139"></polyline>
            <polyline id="Fill-17" fill="#00ABBE" points="44.892 51.522 63.243 25.83 70.584 25.83 52.233 51.522 44.892 51.522"></polyline>
            <polyline id="Fill-18" fill="#00ABBE" points="31.622 51.522 49.973 25.83 57.313 25.83 38.962 51.522 31.622 51.522"></polyline>
            <polyline id="Fill-19" fill="#00ABBE" points="18.351 51.522 36.702 25.83 44.043 25.83 25.692 51.522 18.351 51.522"></polyline>
            <polyline id="Fill-20" fill="#001325" points="25.692 51.522 7.34 25.83 0 25.83 18.351 51.522 25.692 51.522"></polyline>
            <polyline id="Fill-21" fill="#001325" points="38.962 51.522 20.611 25.83 13.271 25.83 31.622 51.522 38.962 51.522"></polyline>
            <polyline id="Fill-22" fill="#001325" points="52.233 51.522 33.882 25.83 26.541 25.83 44.892 51.522 52.233 51.522"></polyline>
            <path d="M103.769,61.976 L102.305,61.976 C102.161,60.943 101.585,56.695 97.864,56.695 C93.256,56.695 92.872,62.575 92.872,64.664 C92.872,66.704 93.065,72.2 97.648,72.2 C99.977,72.2 102.089,70.616 102.761,67.52 L104.249,67.52 C104.009,69.68 102.161,74 96.761,74 C91.168,74 88.312,69.944 88.312,65.096 C88.312,61.855 89.536,55.398 97.433,55.398 C99.16,55.398 101.777,55.734 103.433,56.743 L103.769,61.976" id="Fill-23" fill="#001325"></path>
            <path d="M116.493,66.992 L122.325,66.992 L119.518,60.079 L116.493,66.992 Z M122.878,68.384 L115.893,68.384 L115.509,69.32 C115.413,69.488 115.149,70.304 115.149,70.784 C115.149,72.152 116.733,72.272 117.19,72.272 L117.646,72.272 L117.646,73.568 L110.973,73.568 L110.973,72.272 C112.389,72.272 112.893,71.769 113.781,69.752 L119.974,55.398 L121.701,55.398 L128.014,70.88 C128.566,72.2 128.926,72.272 129.862,72.272 L130.318,72.272 L130.318,73.568 L121.51,73.568 L121.51,72.272 L122.638,72.272 C123.094,72.272 124.054,72.272 124.054,71.552 C124.054,71.265 123.838,70.736 123.718,70.4 L122.878,68.384 L122.878,68.384 Z" id="Fill-24" fill="#001325"></path>
            <path d="M145.636,57.127 C144.605,57.127 144.46,57.511 144.46,58.255 L144.46,64.472 L145.66,64.472 C147.172,64.472 149.86,64.424 149.86,60.775 C149.86,57.271 147.292,57.127 146.116,57.127 L145.636,57.127 Z M144.46,65.768 L144.46,70.521 C144.46,72.08 144.46,72.272 145.805,72.272 L147.796,72.272 L147.796,73.568 L137.98,73.568 L137.98,72.272 L139.084,72.272 C140.356,72.272 140.476,72.176 140.476,70.521 L140.476,58.879 C140.476,57.223 140.356,57.127 139.084,57.127 L137.98,57.127 L137.98,55.831 L147.172,55.831 C148.204,55.831 149.788,55.831 151.349,56.503 C153.533,57.438 154.181,59.359 154.181,60.775 C154.181,63.271 152.477,64.688 151.108,65.264 C149.908,65.768 148.66,65.768 146.572,65.768 L144.46,65.768 L144.46,65.768 Z" id="Fill-25" fill="#001325"></path>
            <path d="M170.576,72.272 L170.576,73.568 L161.312,73.568 L161.312,72.272 L162.584,72.272 C163.856,72.272 163.952,72.176 163.952,70.521 L163.952,58.879 C163.952,57.223 163.856,57.127 162.584,57.127 L161.312,57.127 L161.312,55.831 L170.576,55.831 L170.576,57.127 L169.28,57.127 C168.032,57.127 167.936,57.223 167.936,58.879 L167.936,70.521 C167.936,72.176 168.032,72.272 169.28,72.272 L170.576,72.272" id="Fill-26" fill="#001325"></path>
            <path d="M178.486,55.831 L194.111,55.831 L194.472,62.575 L193.151,62.575 C192.936,61.087 192.312,57.151 189.311,57.151 C188.327,57.151 188.278,57.727 188.278,58.615 L188.278,70.521 C188.278,72.08 188.303,72.272 189.647,72.272 L190.943,72.272 L190.943,73.568 L181.559,73.568 L181.559,72.272 L182.926,72.272 C184.294,72.272 184.294,72.08 184.294,70.521 L184.294,58.399 C184.294,57.775 184.294,57.151 183.263,57.151 C180.238,57.151 179.542,61.255 179.399,62.575 L178.126,62.575 L178.486,55.831" id="Fill-27" fill="#001325"></path>
            <path d="M205.806,66.992 L211.638,66.992 L208.83,60.079 L205.806,66.992 Z M212.191,68.384 L205.205,68.384 L204.821,69.32 C204.726,69.488 204.461,70.304 204.461,70.784 C204.461,72.152 206.046,72.272 206.502,72.272 L206.958,72.272 L206.958,73.568 L200.285,73.568 L200.285,72.272 C201.701,72.272 202.205,71.769 203.094,69.752 L209.286,55.398 L211.014,55.398 L217.326,70.88 C217.879,72.2 218.238,72.272 219.175,72.272 L219.631,72.272 L219.631,73.568 L210.822,73.568 L210.822,72.272 L211.95,72.272 C212.406,72.272 213.366,72.272 213.366,71.552 C213.366,71.265 213.15,70.736 213.03,70.4 L212.191,68.384 L212.191,68.384 Z" id="Fill-28" fill="#001325"></path>
            <path d="M236.752,72.272 C238.648,72.272 240.76,72.272 241.84,66.824 L243.088,66.824 L242.656,73.568 L227.247,73.568 L227.247,72.272 L228.471,72.272 C229.719,72.272 229.839,72.176 229.839,70.521 L229.839,58.879 C229.839,57.223 229.719,57.127 228.471,57.127 L227.247,57.127 L227.247,55.831 L237.184,55.831 L237.184,57.127 L235.168,57.127 C233.896,57.127 233.823,57.223 233.823,58.879 L233.823,70.904 C233.823,71.816 233.896,72.272 234.856,72.272 L236.752,72.272" id="Fill-29" fill="#001325"></path>
        </g>
    </g>
</svg>